<?xml version="1.0" encoding="utf-8"?>
<!-- Generator: Adobe Illustrator 24.1.2, SVG Export Plug-In . SVG Version: 6.00 Build 0)  -->
<svg version="1.1" id="waiops_light" xmlns="http://www.w3.org/2000/svg" xmlns:xlink="http://www.w3.org/1999/xlink" x="0px"
	 y="0px" viewBox="0 0 32 32" style="enable-background:new 0 0 32 32;" xml:space="preserve">
<style type="text/css">
	.st0{fill:#061F80;}
	.st1{filter:url(#Adobe_OpacityMaskFilter);}
	.st2{fill:#FFFFFF;}
	.st3{fill:url(#SVGID_1_);}
	.st4{mask:url(#b8784bf7-a3a7-42e8-9665-79d741e79531_1_);}
	.st5{fill:url(#gradient_1_);}
</style>
<g id="logo">
	<path class="st0" d="M14,24c-0.4,0-0.8-0.3-1-0.7L11.2,17H8v-2h4c0.4,0,0.8,0.3,1,0.7l1,3.6l3-10.6c0.2-0.5,0.7-0.8,1.2-0.7
		c0.3,0.1,0.6,0.4,0.7,0.7l1.8,6.3H24v2h-4c-0.4,0-0.8-0.3-1-0.7l-1-3.6l-3,10.6C14.8,23.7,14.4,24,14,24z"/>
</g>
<defs>
	<filter id="Adobe_OpacityMaskFilter" filterUnits="userSpaceOnUse" x="0" y="0" width="32" height="32">
		<feColorMatrix  type="matrix" values="1 0 0 0 0  0 1 0 0 0  0 0 1 0 0  0 0 0 1 0"/>
	</filter>
</defs>
<mask maskUnits="userSpaceOnUse" x="0" y="0" width="32" height="32" id="b8784bf7-a3a7-42e8-9665-79d741e79531_1_">
	<g class="st1">
		<path class="st2" d="M16,31c-0.2,0-0.3,0-0.5-0.1l-12-7C3.2,23.7,3,23.4,3,23V9c0-0.4,0.2-0.7,0.5-0.9l12-7c0.3-0.2,0.7-0.2,1,0
			l12,7l-1,1.7L16,3.2L5,9.6v12.9l11,6.4l11-6.4V12h2v11c0,0.4-0.2,0.7-0.5,0.9l-12,7C16.3,31,16.2,31,16,31z"/>
		
			<linearGradient id="SVGID_1_" gradientUnits="userSpaceOnUse" x1="28" y1="12" x2="28" y2="23" gradientTransform="matrix(1 0 0 -1 0 34)">
			<stop  offset="0" style="stop-color:#000000;stop-opacity:0"/>
			<stop  offset="0.9" style="stop-color:#000000"/>
		</linearGradient>
		<rect x="26" y="11" class="st3" width="4" height="11"/>
	</g>
</mask>
<g id="hexagon" class="st4">
	
		<linearGradient id="gradient_1_" gradientUnits="userSpaceOnUse" x1="-7863" y1="4053" x2="-7831" y2="4085" gradientTransform="matrix(6.123234e-17 -1 1 6.123234e-17 -4053 -7831)">
		<stop  offset="0.1" style="stop-color:#3DDBD9"/>
		<stop  offset="0.9" style="stop-color:#4589FF"/>
	</linearGradient>
	<rect id="gradient" class="st5" width="32" height="32"/>
</g>
</svg>
